<svg xmlns="http://www.w3.org/2000/svg" width="1520.000000pt" height="700.000000pt" viewBox="0 0 1520.000000 700.000000" preserveAspectRatio="xMidYMid meet"><g transform="translate(0.000000,700.000000) scale(0.100000,-0.100000)" fill="#000000" stroke="none"><path d="M0 4000 l0 -3000 598 0 597 0 900 1714 900 1714 3 -1714 2 -1714 598 0 597 0 903 1719 902 1718 -2 1278 -3 1277 -895 -1705 -895 -1705 -3 1709 -2 1709 -602 -2 -601 -3 -896 -1706 -896 -1707 -3 1709 -2 1709 -600 0 -600 0 0 -3000z"></path><path d="M6100 4000 l0 -3000 1500 0 1500 0 0 500 0 500 -900 0 -900 0 0 800 0 800 700 0 700 0 0 500 0 500 -700 0 -700 0 0 700 0 700 900 0 900 0 0 500 0 500 -1500 0 -1500 0 0 -3000z"></path><path d="M9200 4000 l0 -3000 604 0 604 0 1731 2995 c952 1648 1731 2998 1731 3000 0 3 -309 4 -687 3 l-687 -3 -1046 -1808 -1045 -1809 -3 1811 -2 1811 -600 0 -600 0 0 -3000z"></path><path d="M12261 4005 c-952 -1648 -1731 -2998 -1731 -3000 0 -3 309 -4 687 -3 l687 3 287 495 286 495 761 3 762 2 0 -500 0 -500 600 0 600 0 0 3000 0 3000 -604 0 -604 0 -1731 -2995z m1736 -1002 c-2 -2 -214 -2 -470 -1 l-466 3 467 809 467 808 3 -808 c1 -444 1 -809 -1 -811z"></path><path d="M675 415 c-76 -27 -105 -86 -105 -210 0 -86 27 -148 80 -183 29 -20 45 -23 93 -20 65 5 101 26 132 79 16 28 20 52 20 129 0 81 -3 101 -23 136 -41 70 -119 98 -197 69z m127 -52 c38 -34 51 -75 51 -153 0 -117 -37 -170 -121 -170 -81 0 -130 83 -119 201 9 102 55 153 130 145 21 -2 48 -13 59 -23z"></path><path d="M5110 220 c0 -206 0 -210 21 -210 20 0 21 3 17 164 -1 90 0 162 5 159 4 -2 14 -17 22 -33 25 -48 206 -300 216 -300 5 0 9 89 9 210 0 207 0 210 -21 210 -21 0 -21 -2 -17 -166 3 -118 1 -161 -7 -149 -33 56 -228 325 -236 325 -5 0 -9 -88 -9 -210z"></path><path d="M7607 416 c-21 -8 -47 -22 -57 -31 -33 -30 -55 -104 -54 -182 2 -130 61 -203 164 -203 96 0 156 65 167 182 11 124 -38 219 -123 239 -49 11 -51 11 -97 -5z m123 -51 c34 -31 50 -80 50 -155 0 -117 -36 -170 -116 -170 -87 0 -131 73 -121 203 5 74 24 111 68 135 30 16 95 9 119 -13z"></path><path d="M8080 418 c-89 -25 -130 -92 -130 -210 0 -59 5 -84 23 -119 40 -77 146 -111 232 -75 l35 15 0 90 0 91 -65 0 c-36 0 -65 -4 -65 -9 0 -12 26 -21 61 -21 l30 0 -3 -67 -3 -68 -58 -3 c-56 -3 -60 -1 -97 35 -43 43 -57 99 -46 176 15 97 76 144 173 133 47 -6 53 -4 53 13 0 28 -73 39 -140 19z"></path><path d="M8869 403 c-6 -16 -40 -107 -76 -203 -36 -96 -67 -178 -70 -183 -2 -4 7 -7 20 -7 20 0 26 9 41 55 l17 55 83 0 83 0 18 -55 c16 -45 23 -55 42 -55 l23 0 -26 67 c-14 38 -48 132 -77 210 -29 79 -55 143 -60 143 -4 0 -12 -12 -18 -27z m44 -133 c14 -41 29 -83 32 -92 6 -16 0 -18 -60 -18 -60 0 -66 2 -60 18 4 9 18 52 32 95 15 42 27 76 29 75 1 -2 13 -37 27 -78z"></path><path d="M10815 415 c-22 -8 -41 -15 -43 -15 -2 0 -10 -16 -18 -35 -28 -68 3 -119 102 -166 69 -33 79 -42 89 -81 5 -21 1 -33 -20 -54 -26 -26 -30 -27 -106 -21 -64 4 -79 2 -79 -9 0 -33 121 -46 185 -20 43 18 69 67 61 114 -7 44 -29 68 -91 99 -87 44 -105 61 -105 97 0 19 7 39 15 46 21 17 85 24 127 12 30 -8 38 -7 43 6 6 16 -10 32 -35 32 -8 0 -31 2 -50 5 -19 3 -53 -2 -75 -10z"></path><path d="M11396 363 c-63 -167 -126 -339 -126 -345 0 -5 9 -8 19 -8 15 0 24 13 37 55 l18 55 81 0 82 0 20 -52 c15 -40 26 -54 43 -56 16 -3 21 0 18 10 -3 7 -38 102 -79 211 -40 108 -76 197 -80 197 -4 0 -19 -30 -33 -67z m65 -108 c16 -47 29 -88 29 -90 0 -3 -29 -5 -64 -5 l-64 0 32 94 c17 52 33 93 35 91 2 -2 16 -43 32 -90z"></path><path d="M11763 419 c-65 -19 -94 -98 -56 -155 9 -14 44 -39 77 -56 78 -39 106 -65 106 -98 0 -43 -38 -70 -97 -70 -29 0 -63 4 -76 9 -21 8 -26 6 -30 -10 -7 -26 4 -31 79 -37 106 -8 164 32 164 112 0 34 -6 48 -32 73 -18 17 -53 41 -78 53 -91 45 -114 90 -64 129 29 23 70 26 122 12 26 -8 34 -7 39 5 3 9 2 19 -3 24 -14 13 -116 20 -151 9z"></path><path d="M12132 421 c-45 -12 -70 -37 -78 -79 -11 -56 17 -95 97 -137 86 -45 99 -58 99 -100 0 -53 -32 -69 -125 -62 -57 4 -75 2 -79 -9 -8 -20 9 -26 84 -32 107 -7 164 32 164 112 0 50 -25 79 -103 120 -104 54 -126 103 -65 143 24 15 96 15 135 -1 11 -5 18 -1 22 13 3 13 -1 22 -12 25 -37 11 -108 14 -139 7z"></path><path d="M12527 416 c-21 -8 -47 -22 -57 -31 -33 -30 -55 -104 -54 -182 2 -130 61 -203 164 -203 96 0 156 65 167 182 11 124 -38 219 -123 239 -49 11 -51 11 -97 -5z m123 -51 c34 -31 50 -80 50 -155 0 -117 -36 -170 -116 -170 -87 0 -131 73 -121 203 5 74 24 111 68 135 30 16 95 9 119 -13z"></path><path d="M12987 416 c-82 -30 -116 -91 -117 -207 0 -95 27 -153 86 -186 60 -35 184 -27 184 10 0 11 -14 13 -68 9 -62 -4 -70 -2 -99 22 -45 37 -67 102 -60 171 11 108 68 160 164 151 38 -3 53 -1 57 9 7 19 -1 23 -60 29 -31 4 -63 1 -87 -8z"></path><path d="M13562 312 c-120 -323 -114 -304 -91 -300 15 2 27 18 41 56 l20 53 81 -3 82 -3 19 -52 c15 -43 23 -53 41 -53 21 0 19 9 -55 207 -42 114 -81 208 -86 210 -5 2 -29 -50 -52 -115z m55 -150 c-33 -2 -61 -1 -64 2 -2 2 8 39 22 83 15 43 29 85 32 93 2 8 19 -28 37 -80 l32 -95 -59 -3z"></path><path d="M14549 421 c-84 -27 -114 -84 -114 -216 0 -72 4 -97 20 -124 31 -53 67 -74 132 -79 72 -5 117 21 151 88 20 39 23 56 20 135 -5 133 -44 187 -144 199 -22 3 -51 1 -65 -3z m116 -63 c47 -44 65 -121 47 -205 -16 -78 -53 -113 -118 -113 -61 0 -98 38 -114 116 -36 172 81 298 185 202z"></path><path d="M14900 220 c0 -206 0 -210 21 -210 20 0 21 3 17 164 -1 90 0 162 5 159 4 -2 14 -17 22 -33 25 -48 206 -300 216 -300 5 0 9 89 9 210 0 207 0 210 -21 210 -21 0 -21 -2 -17 -166 3 -118 1 -161 -7 -149 -33 56 -228 325 -236 325 -5 0 -9 -88 -9 -210z"></path><path d="M12 403 c70 -258 115 -403 124 -403 7 0 21 30 32 68 45 145 72 245 72 259 0 8 4 11 10 8 5 -3 10 -16 10 -28 1 -36 86 -301 98 -305 6 -2 18 20 26 50 41 143 96 349 96 358 0 5 -8 10 -18 10 -15 0 -24 -27 -56 -162 -48 -204 -48 -202 -57 -148 -8 49 -85 299 -94 308 -3 3 -7 3 -10 0 -11 -11 -95 -294 -95 -321 0 -36 -20 -25 -20 11 -1 15 -18 90 -39 167 -34 125 -40 140 -61 143 -18 3 -22 0 -18 -15z"></path><path d="M1040 215 c0 -198 1 -205 20 -205 19 0 20 7 20 90 l0 90 30 0 c28 0 37 -9 88 -90 44 -69 62 -90 80 -90 12 0 22 2 22 5 0 10 -93 151 -107 162 -13 10 -10 14 15 27 43 22 62 54 62 104 0 85 -38 112 -155 112 l-75 0 0 -205z m167 140 c50 -57 12 -124 -75 -133 l-52 -5 0 81 c0 90 3 94 65 87 27 -2 47 -12 62 -30z"></path><path d="M1440 215 l0 -205 120 0 c100 0 120 3 120 15 0 12 -18 15 -100 15 l-100 0 0 190 c0 183 -1 190 -20 190 -19 0 -20 -7 -20 -205z"></path><path d="M1792 213 l3 -208 86 0 c76 0 91 3 126 27 57 38 83 96 83 184 0 84 -24 141 -71 175 -29 21 -48 24 -132 27 l-97 4 2 -209z m193 151 c42 -28 59 -71 59 -149 0 -118 -49 -175 -151 -175 l-53 0 0 169 c0 126 3 171 13 175 22 10 105 -3 132 -20z"></path><path d="M2180 410 c0 -31 115 -410 124 -410 6 0 31 66 55 148 24 81 47 158 51 172 l8 25 7 -30 c29 -124 91 -315 102 -315 7 0 13 2 13 5 0 2 25 95 55 205 30 110 55 203 55 205 0 3 -8 5 -19 5 -18 0 -36 -59 -98 -330 -5 -22 -7 -21 -15 15 -20 93 -92 315 -102 312 -8 -3 -77 -219 -103 -322 l-7 -30 -4 30 c-2 17 -16 77 -32 135 -15 58 -33 124 -39 148 -9 31 -17 42 -31 42 -11 0 -20 -4 -20 -10z"></path><path d="M2770 215 l0 -205 25 0 25 0 0 205 0 205 -25 0 -25 0 0 -205z"></path><path d="M2982 213 l3 -208 80 0 c107 0 149 22 188 96 25 47 28 63 25 124 -4 88 -30 142 -84 172 -32 19 -54 23 -127 23 l-87 0 2 -207z m149 167 c73 -20 117 -108 103 -203 -15 -96 -62 -137 -156 -137 l-58 0 0 169 c0 153 2 170 18 174 30 8 56 7 93 -3z"></path><path d="M3420 215 l0 -205 110 0 c91 0 110 3 110 15 0 12 -17 15 -90 15 l-90 0 0 80 0 80 85 0 c78 0 85 2 85 20 0 18 -7 20 -85 20 l-85 0 0 70 0 70 90 0 c83 0 90 1 90 20 0 19 -7 20 -110 20 l-110 0 0 -205z"></path><path d="M3990 215 l0 -205 115 0 c94 0 115 3 115 15 0 11 -19 15 -92 17 l-93 3 -3 77 -3 78 86 0 c78 0 85 2 85 20 0 18 -7 20 -85 20 l-85 0 0 70 0 70 90 0 c83 0 90 1 90 20 0 19 -7 20 -110 20 l-110 0 0 -205z"></path><path d="M4312 408 c121 -323 155 -408 163 -408 6 0 34 66 64 148 30 81 65 175 78 210 l23 63 -22 -3 c-20 -3 -30 -25 -80 -172 -31 -93 -59 -170 -61 -173 -3 -2 -9 16 -15 39 -6 24 -33 102 -60 173 -42 110 -53 131 -72 133 -16 3 -21 0 -18 -10z"></path><path d="M4740 215 l0 -205 115 0 c96 0 115 3 115 15 0 12 -17 15 -90 15 l-90 0 0 80 0 80 80 0 c73 0 80 2 80 20 0 18 -7 20 -80 20 l-80 0 0 70 0 70 90 0 c83 0 90 1 90 20 0 19 -7 20 -115 20 l-115 0 0 -205z"></path><path d="M5520 400 c0 -18 7 -20 65 -20 l65 0 0 -185 c0 -178 1 -185 20 -185 19 0 20 7 20 185 l0 185 65 0 c58 0 65 2 65 20 0 19 -7 20 -150 20 -143 0 -150 -1 -150 -20z"></path><path d="M6070 368 c115 -305 138 -362 147 -365 5 -2 43 85 83 194 40 109 75 204 77 211 3 7 -3 12 -15 12 -22 0 -18 8 -88 -192 -24 -70 -44 -134 -44 -142 0 -9 -4 -16 -10 -16 -5 0 -10 8 -10 18 0 9 -25 88 -57 174 -51 139 -61 158 -80 158 l-23 0 20 -52z"></path><path d="M6500 215 c0 -198 1 -205 20 -205 19 0 20 7 20 205 0 198 -1 205 -20 205 -19 0 -20 -7 -20 -205z"></path><path d="M6702 213 l3 -208 86 0 c76 0 91 3 126 27 57 38 83 96 83 184 0 84 -24 141 -71 175 -29 21 -48 24 -132 27 l-97 4 2 -209z m193 151 c42 -28 59 -71 59 -149 0 -118 -49 -175 -151 -175 l-53 0 0 169 c0 126 3 171 13 175 22 10 105 -3 132 -20z"></path><path d="M7140 215 l0 -205 115 0 c94 0 115 3 115 15 0 11 -19 15 -92 17 l-93 3 -3 77 -3 78 86 0 c78 0 85 2 85 20 0 18 -7 20 -85 20 l-85 0 0 70 0 70 90 0 c83 0 90 1 90 20 0 19 -7 20 -110 20 l-110 0 0 -205z"></path><path d="M8380 215 c0 -198 1 -205 20 -205 19 0 20 7 20 90 l0 90 30 0 c28 0 37 -9 88 -90 44 -69 62 -90 80 -90 12 0 22 2 22 5 0 10 -93 151 -107 162 -13 10 -10 14 15 27 43 22 62 54 62 104 0 85 -38 112 -155 112 l-75 0 0 -205z m167 140 c50 -57 12 -124 -75 -133 l-52 -5 0 81 c0 90 3 94 65 87 27 -2 47 -12 62 -30z"></path><path d="M9160 215 c0 -198 1 -205 20 -205 18 0 20 7 20 78 l0 77 58 1 c101 2 152 47 152 136 0 85 -48 118 -170 118 l-80 0 0 -205z m177 150 c28 -19 38 -56 27 -98 -12 -39 -61 -67 -121 -67 l-43 0 0 89 c0 62 4 91 13 95 20 9 99 -3 124 -19z"></path><path d="M9540 215 c0 -198 1 -205 20 -205 19 0 20 7 20 95 l0 95 105 0 105 0 0 -95 c0 -88 1 -95 20 -95 19 0 20 7 20 205 0 198 -1 205 -20 205 -19 0 -20 -7 -20 -90 l0 -90 -105 0 -105 0 0 90 c0 83 -1 90 -20 90 -19 0 -20 -7 -20 -205z"></path><path d="M9990 215 l0 -205 110 0 c91 0 110 3 110 15 0 12 -17 15 -90 15 l-90 0 0 80 0 80 80 0 c73 0 80 2 80 20 0 18 -7 20 -80 20 l-80 0 0 70 0 70 90 0 c83 0 90 1 90 20 0 19 -7 20 -110 20 l-110 0 0 -205z"></path><path d="M10350 215 l0 -205 25 0 c25 0 25 1 25 90 l0 90 29 0 c26 0 36 -11 87 -90 46 -72 63 -90 82 -90 16 0 21 4 16 13 -45 76 -91 144 -101 150 -20 12 -15 24 12 31 52 13 81 101 53 161 -18 41 -57 55 -148 55 l-80 0 0 -205z m173 146 c28 -28 28 -85 0 -113 -14 -14 -39 -22 -72 -26 l-51 -5 0 81 c0 55 4 82 13 86 24 11 90 -3 110 -23z"></path><path d="M13280 215 l0 -205 25 0 25 0 0 205 0 205 -25 0 -25 0 0 -205z"></path><path d="M13810 400 c0 -18 7 -20 65 -20 l65 0 0 -185 c0 -178 1 -185 20 -185 19 0 20 7 20 185 l0 185 65 0 c58 0 65 2 65 20 0 19 -7 20 -150 20 -143 0 -150 -1 -150 -20z"></path><path d="M14240 215 c0 -198 1 -205 20 -205 19 0 20 7 20 205 0 198 -1 205 -20 205 -19 0 -20 -7 -20 -205z"></path></g></svg>