<svg xmlns="http://www.w3.org/2000/svg" width="1800.000000pt" height="1140.000000pt" viewBox="0 0 1800.000000 1140.000000" preserveAspectRatio="xMidYMid meet"><g transform="translate(0.000000,1140.000000) scale(0.100000,-0.100000)" fill="#000000" stroke="none"><path d="M1330 10187 c-47 -15 -103 -74 -118 -123 -18 -60 -18 -5668 0 -5728 16 -52 72 -108 124 -124 30 -9 169 -12 510 -12 l469 0 50 24 c28 13 58 35 68 49 9 14 350 659 758 1434 407 774 760 1441 783 1482 42 76 81 111 124 111 35 0 77 -25 90 -55 9 -20 12 -366 12 -1447 0 -1093 3 -1430 12 -1462 17 -54 73 -109 129 -125 33 -9 167 -11 519 -9 545 3 523 0 583 91 19 29 421 791 895 1694 l862 1641 0 1264 0 1263 -24 -25 c-13 -14 -364 -673 -781 -1465 -416 -792 -771 -1462 -787 -1488 -45 -70 -95 -92 -153 -65 -58 26 -55 -57 -55 1489 0 1094 -3 1431 -12 1463 -16 52 -72 108 -124 124 -30 9 -169 12 -513 12 -525 0 -513 1 -572 -68 -19 -22 -374 -685 -789 -1474 -414 -788 -767 -1454 -783 -1481 -30 -48 -69 -77 -107 -77 -33 0 -75 26 -88 55 -9 20 -12 371 -12 1463 0 1380 -1 1439 -19 1478 -20 44 -56 74 -110 92 -46 16 -891 15 -941 -1z"></path><path d="M7530 10187 c-47 -15 -103 -74 -118 -123 -18 -60 -18 -5668 0 -5728 16 -52 72 -108 124 -124 60 -18 2668 -18 2728 0 52 16 108 72 124 124 17 58 17 670 0 728 -16 52 -72 108 -124 124 -31 9 -225 12 -776 12 l-735 0 -44 23 c-24 13 -57 43 -74 66 l-30 43 0 668 0 668 30 43 c17 23 50 53 74 66 l44 23 535 0 c393 0 546 3 576 12 52 16 108 72 124 124 17 58 17 670 0 728 -16 52 -72 108 -124 124 -30 9 -183 12 -576 12 l-535 0 -44 23 c-24 13 -57 43 -74 66 l-30 43 0 568 0 568 30 43 c17 23 50 53 74 66 l44 23 735 0 c551 0 745 3 776 12 52 16 108 72 124 124 17 58 17 670 0 728 -16 52 -72 108 -124 124 -56 16 -2681 16 -2734 -1z"></path><path d="M10730 10187 c-47 -15 -103 -74 -118 -123 -18 -60 -18 -5668 0 -5728 16 -52 72 -108 124 -124 30 -9 169 -12 515 -12 440 0 477 2 514 19 22 10 52 31 66 47 20 21 2965 4960 3402 5706 65 110 72 150 33 195 l-24 28 -592 3 -592 2 -52 -23 c-29 -14 -62 -37 -73 -53 -11 -16 -451 -753 -977 -1639 -527 -885 -971 -1622 -987 -1637 -42 -40 -100 -39 -140 1 l-29 29 0 1573 c0 1212 -3 1581 -12 1613 -16 52 -72 108 -124 124 -55 16 -882 15 -934 -1z"></path><path d="M15635 10181 c-22 -10 -52 -31 -66 -47 -14 -16 -786 -1307 -1714 -2869 -929 -1562 -1701 -2860 -1717 -2884 -38 -61 -38 -113 1 -152 l29 -29 584 0 c382 0 596 4 621 11 22 6 54 25 72 42 18 18 146 222 284 453 146 246 263 432 281 447 17 15 47 31 68 37 24 6 276 10 703 10 l666 0 44 -23 c24 -13 58 -43 74 -66 l30 -43 5 -361 c5 -329 7 -365 24 -400 21 -43 64 -79 115 -96 49 -16 869 -15 925 1 52 16 108 72 124 124 18 60 18 5668 0 5728 -16 52 -72 108 -124 124 -30 9 -169 12 -515 12 -440 0 -477 -2 -514 -19z m-62 -2631 l27 -30 0 -584 0 -583 -23 -44 c-13 -24 -43 -57 -66 -74 l-43 -30 -354 -3 -355 -3 -35 35 c-23 23 -34 43 -34 62 0 18 36 89 99 194 54 91 214 361 356 600 142 239 268 446 279 459 44 50 104 50 149 1z"></path><path d="M5561 3130 c-108 -23 -183 -86 -223 -189 -32 -83 -31 -261 2 -345 49 -127 151 -190 306 -190 72 0 90 4 148 33 107 53 160 143 172 296 15 183 -67 336 -204 383 -49 17 -150 22 -201 12z m177 -83 c45 -17 91 -63 116 -117 17 -37 21 -64 21 -160 0 -106 -2 -119 -28 -173 -48 -96 -148 -141 -259 -117 -121 25 -179 109 -186 265 -7 155 37 253 133 296 46 21 152 24 203 6z"></path><path d="M4340 3118 c1 -7 42 -168 93 -358 l92 -345 41 -3 40 -3 83 288 c46 158 86 295 88 303 4 9 9 1 15 -20 5 -19 43 -147 84 -285 41 -137 77 -258 80 -268 5 -14 14 -17 47 -15 l40 3 88 330 c49 182 91 343 95 358 6 28 5 28 -37 25 l-44 -3 -69 -280 c-38 -154 -71 -287 -74 -295 -2 -8 -14 26 -27 75 -13 50 -52 182 -87 295 l-63 205 -44 0 -45 0 -68 -230 c-37 -126 -74 -259 -82 -295 -7 -36 -16 -58 -18 -50 -3 8 -36 141 -74 295 l-70 280 -42 3 c-30 2 -42 -1 -42 -10z"></path><path d="M6130 2770 l0 -360 40 0 40 0 0 150 0 150 74 0 74 0 87 -150 87 -150 45 0 c55 0 58 -9 -47 165 -44 73 -82 139 -85 147 -4 10 4 19 25 28 71 29 118 122 105 209 -19 129 -103 171 -342 171 l-103 0 0 -360z m250 279 c76 -16 102 -43 108 -111 9 -110 -38 -149 -185 -156 l-93 -4 0 141 0 141 60 0 c32 0 82 -5 110 -11z"></path><path d="M6740 2770 l0 -360 200 0 200 0 0 40 0 40 -155 0 -155 0 0 320 0 320 -45 0 -45 0 0 -360z"></path><path d="M7260 2770 l0 -360 113 0 c150 0 229 14 302 54 111 60 160 168 153 335 -5 108 -24 163 -78 225 -69 78 -168 106 -372 106 l-118 0 0 -360z m325 269 c55 -16 129 -91 146 -149 7 -25 13 -82 13 -126 0 -68 -5 -91 -28 -138 -47 -96 -117 -133 -273 -143 l-93 -6 0 293 0 293 98 -6 c53 -3 115 -11 137 -18z"></path><path d="M7910 3123 c1 -5 43 -165 94 -358 l93 -350 41 -3 c38 -3 41 -1 51 30 25 81 150 516 156 547 7 31 11 20 49 -110 23 -79 64 -217 91 -306 l48 -163 38 0 c21 0 40 4 43 8 7 12 186 684 186 700 0 20 -78 16 -84 -5 -19 -62 -136 -536 -136 -553 0 -34 -17 -14 -23 27 -4 21 -41 152 -83 291 l-77 252 -43 0 c-39 0 -43 -3 -53 -32 -41 -132 -134 -459 -145 -510 -12 -62 -13 -62 -20 -28 -4 19 -37 155 -74 303 l-67 267 -42 0 c-24 0 -43 -3 -43 -7z"></path><path d="M8920 2770 l0 -360 40 0 40 0 0 360 0 360 -40 0 -40 0 0 -360z"></path><path d="M9200 2771 l0 -361 108 0 c185 0 281 24 356 90 80 70 120 214 97 350 -14 87 -39 138 -92 190 -67 65 -128 82 -311 88 l-158 5 0 -362z m340 258 c93 -40 140 -125 140 -254 0 -120 -47 -213 -130 -255 -47 -24 -151 -42 -215 -38 l-50 3 -3 275 c-1 151 0 281 3 289 9 22 190 8 255 -20z"></path><path d="M9930 2770 l0 -360 195 0 195 0 0 40 0 40 -155 0 -155 0 0 130 0 130 145 0 145 0 0 35 0 35 -145 0 -145 0 0 115 0 115 155 0 155 0 0 40 0 40 -195 0 -195 0 0 -360z"></path><path d="M10740 2770 l0 -360 200 0 200 0 0 40 0 40 -160 0 -160 0 0 130 0 130 150 0 150 0 0 35 0 35 -150 0 -150 0 0 115 0 115 160 0 160 0 0 40 0 40 -200 0 -200 0 0 -360z"></path><path d="M11200 3128 c0 -2 58 -163 128 -358 l127 -355 41 -3 40 -3 127 353 c70 194 127 357 127 361 0 5 -19 7 -42 5 l-43 -3 -92 -260 c-50 -143 -97 -280 -104 -305 l-12 -45 -14 50 c-8 28 -55 166 -105 308 l-91 257 -43 0 c-24 0 -44 -1 -44 -2z"></path><path d="M11890 2770 l0 -360 200 0 200 0 0 40 0 40 -160 0 -160 0 0 130 0 130 150 0 150 0 0 35 0 34 -147 3 -148 3 -3 113 -3 112 161 0 160 0 0 40 0 40 -200 0 -200 0 0 -360z"></path><path d="M12450 2771 l0 -361 35 0 35 0 2 299 3 299 194 -299 195 -299 48 0 48 0 0 360 0 360 -41 0 -40 0 3 -299 c2 -165 1 -297 -2 -295 -3 3 -91 137 -196 297 l-191 292 -46 3 -47 3 0 -360z"></path><path d="M13120 3090 l0 -40 110 0 110 0 0 -320 0 -320 40 0 40 0 0 320 0 320 115 0 115 0 0 40 0 40 -265 0 -265 0 0 -40z"></path><path d="M4138 1930 c-140 -25 -230 -130 -248 -286 -14 -133 13 -258 74 -339 82 -107 310 -135 434 -52 51 35 105 107 122 165 19 63 24 185 10 256 -22 117 -106 221 -198 245 -57 16 -142 21 -194 11z m214 -106 c65 -45 91 -107 96 -222 5 -116 -9 -187 -49 -242 -82 -113 -279 -113 -370 0 -82 102 -74 343 14 439 42 46 94 62 185 58 72 -3 88 -7 124 -33z"></path><path d="M4949 1930 c-202 -36 -316 -212 -281 -434 34 -219 178 -317 425 -287 51 6 106 15 122 19 l30 8 3 177 2 177 -120 0 -120 0 0 -40 0 -40 80 0 80 0 0 -110 0 -109 -37 -8 c-21 -4 -73 -7 -115 -6 -185 2 -278 115 -266 321 8 126 65 212 165 248 55 19 178 17 242 -5 l53 -19 14 34 c8 18 14 36 14 38 0 11 -108 35 -175 40 -38 3 -91 1 -116 -4z"></path><path d="M9311 1930 c-97 -20 -151 -84 -151 -179 0 -104 46 -152 207 -216 111 -44 143 -75 143 -139 0 -82 -53 -120 -170 -119 -65 0 -125 10 -176 30 -11 4 -14 -4 -14 -36 0 -39 1 -41 43 -52 59 -16 213 -16 262 0 109 37 162 130 134 233 -17 65 -70 109 -185 154 -122 47 -154 74 -161 135 -5 41 -2 50 25 80 27 31 35 34 100 37 46 3 89 -1 127 -13 31 -9 58 -15 60 -13 1 2 7 17 13 35 11 32 11 32 -36 47 -62 20 -166 27 -221 16z"></path><path d="M10751 1930 c-97 -20 -151 -84 -151 -179 0 -104 46 -152 207 -216 111 -44 143 -75 143 -139 0 -82 -53 -120 -170 -119 -65 0 -125 10 -176 30 -11 4 -14 -4 -14 -36 0 -39 1 -41 43 -52 59 -16 213 -16 262 0 109 37 162 130 134 233 -17 65 -70 109 -185 154 -122 47 -154 74 -161 135 -5 41 -2 50 25 80 27 31 35 34 100 37 46 3 89 -1 127 -13 31 -9 58 -15 60 -13 1 2 7 17 13 35 11 32 11 32 -36 47 -62 20 -166 27 -221 16z"></path><path d="M11301 1930 c-97 -20 -151 -84 -151 -179 0 -104 46 -152 207 -216 111 -44 143 -75 143 -139 0 -82 -53 -120 -170 -119 -65 0 -125 10 -176 30 -11 4 -14 -4 -14 -36 0 -39 1 -41 43 -52 59 -16 213 -16 262 0 109 37 162 130 134 233 -17 65 -70 109 -185 154 -122 47 -154 74 -161 135 -5 41 -2 50 25 80 27 31 35 34 100 37 46 3 89 -1 127 -13 31 -9 58 -15 60 -13 1 2 7 17 13 35 11 32 11 32 -36 47 -62 20 -166 27 -221 16z"></path><path d="M11948 1930 c-140 -25 -230 -130 -248 -286 -14 -133 13 -258 74 -339 82 -107 310 -135 434 -52 51 35 105 107 122 165 19 63 24 185 10 256 -22 117 -106 221 -198 245 -57 16 -142 21 -194 11z m214 -106 c65 -45 91 -107 96 -222 5 -116 -9 -187 -49 -242 -82 -113 -279 -113 -370 0 -82 102 -74 343 14 439 42 46 94 62 185 58 72 -3 88 -7 124 -33z"></path><path d="M12738 1930 c-184 -33 -284 -202 -257 -435 15 -139 94 -243 209 -277 49 -14 206 -14 255 0 26 7 30 14 33 47 3 35 2 37 -20 31 -49 -15 -195 -19 -233 -6 -58 19 -121 83 -142 143 -27 78 -24 216 6 285 27 61 84 114 140 130 52 16 147 14 196 -3 53 -19 52 -20 71 16 13 26 14 33 2 40 -41 27 -184 43 -260 29z"></path><path d="M15090 1927 c-103 -24 -160 -71 -207 -172 -26 -56 -28 -69 -28 -185 0 -116 3 -130 29 -186 56 -124 144 -177 291 -178 107 0 166 22 232 86 52 51 81 116 92 208 18 139 -18 277 -90 349 -72 72 -204 104 -319 78z m200 -89 c60 -31 96 -80 116 -158 19 -76 15 -190 -11 -260 -20 -55 -77 -116 -124 -132 -60 -20 -151 -15 -205 11 -94 46 -132 136 -124 302 3 83 8 102 35 149 24 43 41 61 83 83 69 36 164 38 230 5z"></path><path d="M1670 1918 c0 -7 56 -168 124 -358 l124 -345 40 -3 c40 -3 40 -3 60 50 71 191 232 648 232 657 0 8 -15 11 -41 9 l-42 -3 -93 -262 c-51 -145 -96 -279 -100 -298 -8 -42 -19 -45 -27 -7 -5 23 -167 490 -192 555 -9 21 -85 25 -85 5z"></path><path d="M2360 1570 l0 -360 40 0 40 0 0 360 0 360 -40 0 -40 0 0 -360z"></path><path d="M2640 1571 l0 -361 108 0 c300 0 424 82 451 297 18 146 -19 266 -104 341 -70 61 -115 73 -297 79 l-158 6 0 -362z m346 254 c66 -32 97 -71 119 -150 31 -106 10 -232 -51 -304 -49 -58 -149 -91 -281 -91 l-53 0 0 292 0 291 106 -6 c87 -5 117 -11 160 -32z"></path><path d="M3360 1570 l0 -360 200 0 200 0 0 40 0 40 -160 0 -160 0 0 130 0 130 150 0 150 0 0 35 0 34 -147 3 -148 3 -3 113 -3 112 161 0 160 0 0 40 0 40 -200 0 -200 0 0 -360z"></path><path d="M5430 1570 l0 -360 40 0 40 0 0 150 0 150 74 0 74 0 87 -150 87 -150 45 0 c55 0 58 -9 -47 165 -44 73 -82 139 -85 147 -4 10 4 19 25 28 71 29 118 122 105 209 -19 129 -103 171 -342 171 l-103 0 0 -360z m250 279 c76 -16 102 -43 108 -111 9 -110 -38 -149 -185 -156 l-93 -4 0 141 0 141 60 0 c32 0 82 -5 110 -11z"></path><path d="M6221 1908 c-5 -13 -68 -173 -140 -356 -72 -184 -131 -336 -131 -339 0 -2 19 -3 41 -1 l41 3 43 110 42 110 145 3 144 3 44 -116 44 -115 43 0 42 0 -13 38 c-8 20 -70 181 -139 357 l-126 320 -35 3 c-30 3 -38 -1 -45 -20z m152 -383 c1 -6 -42 -11 -110 -13 -62 -1 -113 0 -113 3 0 3 22 63 48 133 27 70 52 140 56 157 7 27 14 13 62 -120 31 -83 56 -154 57 -160z"></path><path d="M6680 1571 l0 -361 40 0 40 0 0 138 0 139 95 6 c196 13 286 95 272 248 -7 80 -35 122 -103 155 -50 24 -69 27 -200 32 l-144 5 0 -362z m298 260 c98 -50 89 -204 -14 -247 -18 -8 -71 -17 -118 -20 l-86 -7 0 153 0 153 89 -6 c60 -4 102 -12 129 -26z"></path><path d="M7280 1570 l0 -360 40 0 40 0 0 170 0 170 190 0 190 0 0 -170 0 -170 40 0 40 0 0 360 0 360 -40 0 -40 0 0 -155 0 -155 -190 0 -190 0 0 155 0 155 -40 0 -40 0 0 -360z"></path><path d="M8020 1570 l0 -360 195 0 195 0 0 40 0 40 -155 0 -155 0 0 130 0 130 145 0 145 0 0 35 0 35 -145 0 -145 0 0 115 0 115 155 0 155 0 0 40 0 40 -195 0 -195 0 0 -360z"></path><path d="M8570 1571 l0 -361 40 0 40 0 0 150 0 150 78 0 78 0 85 -147 85 -148 47 -3 c26 -2 47 0 47 4 0 4 -40 74 -90 155 -49 82 -90 152 -89 156 0 4 21 22 46 38 61 40 83 83 83 163 0 89 -26 134 -98 169 -49 24 -67 27 -203 31 l-149 5 0 -362z m304 265 c85 -36 88 -188 4 -232 -25 -14 -57 -18 -128 -19 l-95 0 -3 124 c-1 69 0 131 3 139 4 12 22 14 94 9 48 -3 105 -12 125 -21z"></path><path d="M10052 1592 c-73 -186 -135 -348 -139 -360 -5 -20 -2 -22 34 -22 l39 0 44 115 44 116 144 -3 145 -3 42 -110 43 -110 41 -3 c22 -2 41 0 41 5 0 4 -62 166 -137 360 l-138 353 -35 0 -36 0 -132 -338z m178 213 c0 -7 23 -72 50 -145 28 -73 50 -136 50 -141 0 -5 -49 -9 -110 -9 -72 0 -110 4 -110 11 0 6 23 71 50 144 28 73 50 141 50 150 0 9 5 13 10 10 6 -3 10 -12 10 -20z"></path><path d="M13140 1570 l0 -360 40 0 40 0 0 360 0 360 -40 0 -40 0 0 -360z"></path><path d="M13472 1592 c-73 -186 -135 -348 -139 -360 -5 -20 -2 -22 34 -22 l39 0 44 115 44 116 144 -3 145 -3 42 -110 43 -110 41 -3 c22 -2 41 0 41 5 0 4 -62 166 -137 360 l-138 353 -35 0 -36 0 -132 -338z m178 213 c0 -7 23 -72 50 -145 28 -73 50 -136 50 -141 0 -5 -49 -9 -110 -9 -72 0 -110 4 -110 11 0 6 23 71 50 144 28 73 50 141 50 150 0 9 5 13 10 10 6 -3 10 -12 10 -20z"></path><path d="M13970 1890 l0 -40 110 0 110 0 0 -320 0 -320 40 0 40 0 0 320 0 320 115 0 115 0 0 40 0 40 -265 0 -265 0 0 -40z"></path><path d="M14610 1570 l0 -360 40 0 40 0 0 360 0 360 -40 0 -40 0 0 -360z"></path><path d="M15660 1570 l0 -360 41 0 41 0 -4 299 c-1 165 -1 297 2 294 3 -2 91 -136 196 -296 l190 -292 47 -3 47 -3 0 360 0 361 -35 0 -35 0 -2 -299 -3 -299 -195 299 -195 299 -47 0 -48 0 0 -360z"></path></g></svg>